<svg xmlns="http://www.w3.org/2000/svg" version="1.1" xmlns:xlink="http://www.w3.org/1999/xlink" xmlns:svgjs="http://svgjs.dev/svgjs" width="1500" height="1500" viewBox="0 0 1500 1500"><rect width="1500" height="1500" fill="#ffffff"></rect><g transform="matrix(0.6666666666666666,0,0,0.6666666666666666,249.39393939393938,614.0174879414171)"><svg viewBox="0 0 396 108" data-background-color="#f8f8f8" preserveAspectRatio="xMidYMid meet" height="409" width="1500" xmlns="http://www.w3.org/2000/svg" xmlns:xlink="http://www.w3.org/1999/xlink"><g id="tight-bounds" transform="matrix(1,0,0,1,0.2400000000000091,-0.13895610393538504)"><svg viewBox="0 0 395.52 108.27791220787076" height="108.27791220787076" width="395.52"><g><svg viewBox="0 0 712.5454241031484 195.0670784667292" height="108.27791220787076" width="395.52"><g><rect width="11.64186922225134" height="195.0670784667292" x="425.9960974404485" y="0" fill="#000000" opacity="1" stroke-width="0" stroke="transparent" fill-opacity="1" class="rect-qz-0" data-fill-palette-color="primary" rx="1%" id="qz-0" data-palette-color="#007965"></rect></g><g transform="matrix(1,0,0,1,0,0.4852414887231902)"><svg viewBox="0 0 395.52 194.09659548928283" height="194.09659548928283" width="395.52"><g id="textblocktransform"><svg viewBox="0 0 395.52 194.09659548928283" height="194.09659548928283" width="395.52" id="textblock"><g><svg viewBox="0 0 395.52 129.09443331998398" height="129.09443331998398" width="395.52"><g transform="matrix(1,0,0,1,0,0)"><svg width="395.52" viewBox="-3.2 -51.25 248.42999999999998 81.50000000000001" height="129.09443331998398" data-palette-color="#007965"><g class="wordmark-text-0" data-fill-palette-color="primary" id="text-0"><path d="M7.3-14.55Q4.65-16.1 2.8-19.1 0.95-22.1 0.95-25.2L0.95-25.2Q0.95-28.2 2.8-30.68 4.65-33.15 8.43-34.63 12.2-36.1 17.7-36.1L17.7-36.1Q20.4-36.1 22.55-35.8 24.7-35.5 28.25-34.85L28.25-34.85Q32.5-33.95 34.7-33.95L34.7-33.95Q36.9-33.95 38.78-34.68 40.65-35.4 41.7-37L41.7-37Q41.15-34.6 39.25-33.1 37.35-31.6 33.9-31.6L33.9-31.6Q32.3-31.6 30.05-31.9 27.8-32.2 24.1-32.8L24.1-32.8Q20.5-33.4 18.23-33.7 15.95-34 14.4-34L14.4-34Q11.55-34 9.1-32.93 6.65-31.85 5.15-29.83 3.65-27.8 3.65-25.1L3.65-25.1Q3.65-22.3 5.35-19.98 7.05-17.65 10.5-15.2L10.5-15.2 10.3-14.95Q9.25-14.95 8.65-14.88 8.05-14.8 7.3-14.55L7.3-14.55ZM5.55 0.75Q3.45 0.75 1.2 0.33-1.05-0.1-2.35-0.7L-2.35-0.7Q-2.9-2.2-3.2-3.45L-3.2-3.45-2.75-3.95Q-0.95-2.2 0.83-1.45 2.6-0.7 5.25-0.7L5.25-0.7Q8.15-0.7 10.4-1.75 12.65-2.8 14.5-5.68 16.35-8.55 17.65-13.8L17.65-13.8 18.3-16.5Q20-24.4 21.5-29.45L21.5-29.45Q22.3-30.4 23.15-30.9 24-31.4 25.35-32L25.35-32 25.8-31.85Q24.6-30.25 23.5-26.38 22.4-22.5 21.15-16.9L21.15-16.9 20.4-13.7Q16.8 0.75 5.55 0.75L5.55 0.75ZM61.6-11.55Q62.25-11.55 62.25-10.25L62.25-10.25Q62.25-7.95 60.22-5.4 58.2-2.85 55.32-1.13 52.45 0.6 50.05 0.6L50.05 0.6Q48.1 0.6 47.05-0.6 46-1.8 45.8-3.7L45.8-3.7Q44.55-1.9 42.65-0.75 40.75 0.4 39.25 0.4L39.25 0.4Q37.95 0.4 36.67-0.48 35.4-1.35 34.6-2.63 33.8-3.9 33.75-5.05L33.75-5.05 36.2-15.15Q36.5-16.35 37.72-17.73 38.95-19.1 40.7-20 42.45-20.9 44.25-20.9L44.25-20.9Q46.55-20.9 48.3-19.35L48.3-19.35Q48.75-20.55 48.97-20.85 49.2-21.15 49.65-21.2L49.65-21.2 52.1-21.45 52.25-21.35Q51.25-20.55 50.8-18.85L50.8-18.85Q49.25-13.05 48.67-10.3 48.1-7.55 48.1-5.45L48.1-5.45Q48.1-3.35 48.65-2.38 49.2-1.4 50.5-1.4L50.5-1.4Q52.1-1.4 54.32-2.7 56.55-4 58.55-6.33 60.55-8.65 61.6-11.55L61.6-11.55ZM39.45-1.95Q40.3-1.95 41.52-2.55 42.75-3.15 43.82-4.28 44.9-5.4 45.3-6.85L45.3-6.85 46.25-10.95Q46.45-11.95 46.95-14.18 47.45-16.4 47.75-17.6L47.75-17.6Q46.35-19 44.35-19L44.35-19Q42.8-19 41.55-18.18 40.3-17.35 39.5-16.18 38.7-15 38.5-14.1L38.5-14.1 36.5-5.2Q36.6-3.95 37.5-2.95 38.4-1.95 39.45-1.95L39.45-1.95ZM83.59-12.2Q84.09-12.2 84.32-11.78 84.55-11.35 84.55-10.8L84.55-10.8Q84.55-9 82.64-6.25 80.75-3.5 77.82-1.45 74.89 0.6 72.05 0.6L72.05 0.6Q70.25 0.6 69.27-0.3 68.3-1.2 68.3-3.05L68.3-3.05Q68.3-5.6 69.69-9.98 71.09-14.35 72.25-17.25L72.25-17.25Q72.05-17.55 71.84-17.55L71.84-17.55Q71.64-17.55 71.39-17.4L71.39-17.4Q70.5-16.85 68.44-14.95 66.39-13.05 64.44-10.95 62.49-8.85 61.8-7.55L61.8-7.55Q60.99-5.4 60.8-4.83 60.59-4.25 60.39-2.95L60.39-2.95 59.95-0.7Q59.89-0.55 59.84-0.33 59.8-0.1 59.72-0.05 59.64 0 59.49 0L59.49 0Q59.05 0 58.32-0.1 57.59-0.2 57.59-0.4L57.59-0.4Q57.59-1 57.95-2.35 58.3-3.7 58.64-4.8 58.99-5.9 59.2-6.5L59.2-6.5 59.64-7.9Q61.09-12.9 61.62-15.18 62.14-17.45 62.64-20.25L62.64-20.25Q62.7-20.75 63.34-20.75L63.34-20.75Q63.8-20.75 64.37-20.53 64.94-20.3 65.05-19.9L65.05-19.9Q64.84-19 64.32-16.85 63.8-14.7 63.05-12.1L63.05-12.1Q65.94-15.35 69.07-18 72.19-20.65 73.25-20.65L73.25-20.65Q73.75-20.65 74.44-20.15 75.14-19.65 75.3-19.2L75.3-19.2Q73.69-14.9 72.25-9.83 70.8-4.75 70.8-3.15L70.8-3.15Q70.8-1.4 72.8-1.4L72.8-1.4Q75.75-1.4 78.77-4.7 81.8-8 83.59-12.2L83.59-12.2ZM97.69-22.75Q98.29-22.15 98.89-21.75L98.89-21.75Q99.39-21.35 99.57-21.13 99.74-20.9 99.74-20.5L99.74-20.5Q99.74-20.1 99.54-19.5L99.54-19.5Q98.54-15.65 96.89-8.45L96.89-8.45Q95.79-3.55 94.89-0.05L94.89-0.05Q92.29 10.5 89.57 16.95 86.84 23.4 82.77 26.83 78.69 30.25 72.59 30.25L72.59 30.25Q68.59 30.25 65.84 28.88 63.09 27.5 61.79 25.4 60.49 23.3 60.49 21.1L60.49 21.1Q60.49 20.6 60.59 20.28 60.69 19.95 61.09 19.3L61.09 19.3Q64.04 27.35 72.69 27.35L72.69 27.35Q78.09 27.35 81.69 24.18 85.29 21 87.74 15.23 90.19 9.45 92.59 0L92.59 0 92.84-1Q92.94-1.4 93.04-1.75 93.14-2.1 93.19-2.45L93.19-2.45Q91.79-1.1 89.94-0.35 88.09 0.4 86.84 0.4L86.84 0.4Q85.54 0.4 84.32-0.45 83.09-1.3 82.34-2.58 81.59-3.85 81.59-5.05L81.59-5.05Q81.89-6.25 82.29-8.1 82.69-9.95 82.89-10.95L82.89-10.95 84.09-16.35Q84.34-17.4 85.69-18.6 87.04-19.8 88.77-20.6 90.49-21.4 91.74-21.4L91.74-21.4Q93.09-21.4 94.39-20.4 95.69-19.4 96.69-17.75L96.69-17.75Q96.99-19.15 97.24-21.05L97.24-21.05 97.49-22.7 97.69-22.75ZM94.19-6.85L96.09-15.1Q95.14-16.95 93.92-18.05 92.69-19.15 91.54-19.15L91.54-19.15Q90.74-19.15 89.59-18.63 88.44-18.1 87.49-17.23 86.54-16.35 86.29-15.3L86.29-15.3Q85.94-13.8 84.99-8.6L84.99-8.6 84.39-5.2Q84.39-4 85.27-2.95 86.14-1.9 87.29-1.9L87.29-1.9Q88.14-1.9 89.69-2.5 91.24-3.1 92.54-4.23 93.84-5.35 94.19-6.85L94.19-6.85ZM119.74-20.9Q120.39-20.9 121.22-20.38 122.04-19.85 122.24-19.2L122.24-19.2Q121.64-17.2 121.09-15L121.09-15Q120.84-14.15 120.04-11.28 119.24-8.4 117.94-4.25L117.94-4.25Q115.04 4.9 112.22 11.03 109.39 17.15 104.49 21.4 99.59 25.65 92.29 25.65L92.29 25.65Q88.64 25.65 86.19 24.55 83.74 23.45 82.56 21.7 81.39 19.95 81.39 17.85L81.39 17.85Q81.39 17.15 81.54 16.78 81.69 16.4 81.79 16.1L81.79 16.1Q83.34 19.25 85.92 20.88 88.49 22.5 92.74 22.5L92.74 22.5Q98.44 22.5 102.59 19.58 106.74 16.65 109.74 11.03 112.74 5.4 115.14-3.3L115.14-3.3Q113.64-1.95 111.72-0.98 109.79 0 108.54 0L108.54 0Q107.59 0 106.72-0.6 105.84-1.2 105.27-2.13 104.69-3.05 104.69-3.85L104.69-3.85Q106.04-10 107.24-15.1L107.24-15.1Q107.84-17.8 108.19-19.3L108.19-19.3Q108.39-20.1 108.74-20.4 109.09-20.7 109.84-20.7L109.84-20.7Q110.49-20.7 111.14-20.45L111.14-20.45 107.34-4.45Q107.34-3.7 107.97-3.05 108.59-2.4 109.34-2.4L109.34-2.4Q110.44-2.4 112.74-3.85 115.04-5.3 115.84-6.35L115.84-6.35Q116.94-9.05 117.64-11.75 118.34-14.45 119.24-18.6L119.24-18.6 119.74-20.9Z" fill="#000000" data-fill-palette-color="primary"></path><path d="M142.44-14.55Q139.79-16.1 137.94-19.1 136.09-22.1 136.09-25.2L136.09-25.2Q136.09-28.2 137.94-30.68 139.79-33.15 143.56-34.63 147.34-36.1 152.84-36.1L152.84-36.1Q155.54-36.1 157.69-35.8 159.84-35.5 163.39-34.85L163.39-34.85Q167.64-33.95 169.84-33.95L169.84-33.95Q172.04-33.95 173.91-34.68 175.79-35.4 176.84-37L176.84-37Q176.29-34.6 174.39-33.1 172.49-31.6 169.04-31.6L169.04-31.6Q167.44-31.6 165.19-31.9 162.94-32.2 159.24-32.8L159.24-32.8Q155.64-33.4 153.36-33.7 151.09-34 149.54-34L149.54-34Q146.69-34 144.24-32.93 141.79-31.85 140.29-29.83 138.79-27.8 138.79-25.1L138.79-25.1Q138.79-22.3 140.49-19.98 142.19-17.65 145.64-15.2L145.64-15.2 145.44-14.95Q144.39-14.95 143.79-14.88 143.19-14.8 142.44-14.55L142.44-14.55ZM140.69 0.75Q138.59 0.75 136.34 0.33 134.09-0.1 132.79-0.7L132.79-0.7Q132.24-2.2 131.94-3.45L131.94-3.45 132.39-3.95Q134.19-2.2 135.96-1.45 137.74-0.7 140.39-0.7L140.39-0.7Q143.29-0.7 145.54-1.75 147.79-2.8 149.64-5.68 151.49-8.55 152.79-13.8L152.79-13.8 153.44-16.5Q155.14-24.4 156.64-29.45L156.64-29.45Q157.44-30.4 158.29-30.9 159.14-31.4 160.49-32L160.49-32 160.94-31.85Q159.74-30.25 158.64-26.38 157.54-22.5 156.29-16.9L156.29-16.9 155.54-13.7Q151.94 0.75 140.69 0.75L140.69 0.75ZM196.74-11.55Q197.39-11.55 197.39-10.25L197.39-10.25Q197.39-7.95 195.36-5.4 193.33-2.85 190.46-1.13 187.58 0.6 185.19 0.6L185.19 0.6Q183.24 0.6 182.19-0.6 181.14-1.8 180.94-3.7L180.94-3.7Q179.69-1.9 177.79-0.75 175.89 0.4 174.39 0.4L174.39 0.4Q173.09 0.4 171.81-0.48 170.54-1.35 169.74-2.63 168.94-3.9 168.89-5.05L168.89-5.05 171.34-15.15Q171.64-16.35 172.86-17.73 174.09-19.1 175.84-20 177.59-20.9 179.39-20.9L179.39-20.9Q181.69-20.9 183.44-19.35L183.44-19.35Q183.89-20.55 184.11-20.85 184.34-21.15 184.79-21.2L184.79-21.2 187.24-21.45 187.39-21.35Q186.39-20.55 185.94-18.85L185.94-18.85Q184.39-13.05 183.81-10.3 183.24-7.55 183.24-5.45L183.24-5.45Q183.24-3.35 183.79-2.38 184.34-1.4 185.64-1.4L185.64-1.4Q187.24-1.4 189.46-2.7 191.69-4 193.69-6.33 195.69-8.65 196.74-11.55L196.74-11.55ZM174.59-1.95Q175.44-1.95 176.66-2.55 177.89-3.15 178.96-4.28 180.04-5.4 180.44-6.85L180.44-6.85 181.39-10.95Q181.59-11.95 182.09-14.18 182.59-16.4 182.89-17.6L182.89-17.6Q181.49-19 179.49-19L179.49-19Q177.94-19 176.69-18.18 175.44-17.35 174.64-16.18 173.84-15 173.64-14.1L173.64-14.1 171.64-5.2Q171.74-3.95 172.64-2.95 173.54-1.95 174.59-1.95L174.59-1.95ZM215.68-14Q216.18-14 216.48-13.53 216.78-13.05 216.78-12.35L216.78-12.35Q216.78-11.45 216.28-10.45L216.28-10.45Q214.88-7.5 212.28-5.03 209.68-2.55 206.66-1.1 203.63 0.35 201.03 0.35L201.03 0.35Q195.73 0.35 195.73-5.8L195.73-5.8Q195.73-10.1 198.08-19.63 200.43-29.15 204.88-44.9L204.88-44.9Q205.83-48.15 206.96-49.7 208.08-51.25 209.53-51.25L209.53-51.25Q210.58-51.25 211.56-50.53 212.53-49.8 213.18-48.3 213.83-46.8 213.83-44.6L213.83-44.6Q213.83-41.05 212.16-35.6 210.48-30.15 207.13-24.1 203.78-18.05 199.08-12.9L199.08-12.9Q198.23-8.5 198.23-6.35L198.23-6.35Q198.23-3.95 199.21-2.93 200.18-1.9 201.93-1.9L201.93-1.9Q204.38-1.9 207.16-3.55 209.93-5.2 212.23-8 214.53-10.8 215.68-14L215.68-14ZM206.18-41.75Q201.98-26.65 199.83-16.7L199.83-16.7Q203.53-21.35 206.21-26.85 208.88-32.35 210.21-37.15 211.53-41.95 211.53-44.7L211.53-44.7Q211.53-46.25 211.08-47.38 210.63-48.5 209.58-48.5L209.58-48.5Q208.98-48.5 208.16-47.25 207.33-46 206.18-41.75L206.18-41.75ZM234.58-11.95Q235.48-11.8 235.48-10.95L235.48-10.95Q235.48-8.95 232.91-6.28 230.33-3.6 226.83-1.68 223.33 0.25 220.98 0.25L220.98 0.25Q218.73 0.25 217.08-0.93 215.43-2.1 214.56-3.55 213.68-5 213.68-5.7L213.68-5.7Q214.48-8.55 215.43-13.6L215.43-13.6 215.98-16.4Q216.18-17.4 217.43-18.48 218.68-19.55 220.23-20.28 221.78-21 222.73-21L222.73-21Q223.48-21 224.56-20.53 225.63-20.05 226.46-19.05 227.28-18.05 227.28-16.5L227.28-16.5Q227.28-14.7 226.08-13.1 224.88-11.5 222.53-10.5 220.18-9.5 216.88-9.5L216.88-9.5 216.18-6.15Q216.18-5.7 216.71-4.65 217.23-3.6 218.41-2.75 219.58-1.9 221.38-1.9L221.38-1.9Q223.78-1.9 226.43-3.48 229.08-5.05 231.28-7.4 233.48-9.75 234.58-11.95L234.58-11.95ZM222.33-18.95Q221.73-18.95 220.78-18.45 219.83-17.95 219.06-17.2 218.28-16.45 218.13-15.8L218.13-15.8Q217.63-13.55 217.23-11.25L217.23-11.25Q221.08-11.4 223.03-12.78 224.98-14.15 224.98-15.9L224.98-15.9Q224.98-17.15 224.08-18.05 223.18-18.95 222.33-18.95L222.33-18.95ZM235.23 0.65Q232.83 0.65 231.15-0.5 229.48-1.65 229.48-3.15L229.48-3.15Q229.48-3.95 229.93-4.45 230.38-4.95 230.93-5.05L230.93-5.05Q231.48-3.15 232.73-2.2 233.98-1.25 235.78-1.25L235.78-1.25Q238.03-1.25 239.38-2.53 240.73-3.8 240.73-5.5L240.73-5.5Q240.73-6.75 240-7.7 239.28-8.65 237.83-9.9L237.83-9.9Q236.23-11.3 235.45-12.33 234.68-13.35 234.68-14.8L234.68-14.8Q234.68-16.35 235.65-17.75 236.63-19.15 238.15-20 239.68-20.85 241.33-20.85L241.33-20.85Q242.78-20.85 244-20.23 245.23-19.6 245.23-18.55L245.23-18.55Q245.23-17.55 244.03-16.45L244.03-16.45Q243.38-17.6 242.43-18.23 241.48-18.85 240.43-18.85L240.43-18.85Q238.83-18.85 238-17.68 237.18-16.5 237.18-15.35L237.18-15.35Q237.18-14.4 237.83-13.65 238.48-12.9 239.88-11.75L239.88-11.75Q241.58-10.3 242.48-9.15 243.38-8 243.38-6.45L243.38-6.45Q243.38-4.8 242.3-3.15 241.23-1.5 239.35-0.43 237.48 0.65 235.23 0.65L235.23 0.65Z" fill="#000000" data-fill-palette-color="secondary"></path></g></svg></g></svg></g><g transform="matrix(1,0,0,1,170.0736,159.57053076043252)"><svg viewBox="0 0 225.44639999999998 34.52606472885032" height="34.52606472885032" width="225.44639999999998"><g transform="matrix(1,0,0,1,0,0)"><svg width="225.44639999999998" viewBox="2.5 -39.25 345.72 52.95" height="34.52606472885032" data-palette-color="#a18016"><path d="M22.75-35.6Q24-35.1 24-34.2L24-34.2Q24-33.3 22.75-31.9L22.75-31.9Q22.2-31.95 21.15-31.95L21.15-31.95Q18.85-31.95 16.75-31.33 14.65-30.7 12.4-29.4L12.4-29.4Q11.35-28.75 10.6-27.75L10.6-27.75Q10.05-27.15 10.05-26.35L10.05-26.35Q10.05-25 11.55-23.75L11.55-23.75Q13-22.25 16.3-18.3L16.3-18.3 17.45-17.1Q19.9-14.45 21.33-12.6 22.75-10.75 23.75-8.35L23.75-8.35Q24.15-7.3 24.15-6.45L24.15-6.45Q24.15-4.3 22.5-2.5L22.5-2.5Q20.6-0.4 18.1 0.58 15.6 1.55 12.45 1.8L12.45 1.8Q12.05 1.85 11.5 1.9 10.95 1.95 10.25 1.95L10.25 1.95Q9.8 1.95 8.9 1.85L8.9 1.85Q7.8 1.9 6.6 1.48 5.4 1.05 4.4 0.25L4.4 0.25Q2.5-1.35 2.5-3.3L2.5-3.3Q2.5-4.95 3.9-6.65L3.9-6.65Q4.6-6.55 4.73-6.23 4.85-5.9 4.78-5.5 4.7-5.1 4.7-4.85L4.7-4.85Q4.7-4.7 4.8-4.4L4.8-4.4Q6.75-3.5 9.45-3.5L9.45-3.5Q12.45-3.5 15.13-4.53 17.8-5.55 18.4-7.05L18.4-7.05Q18.75-8.05 16.7-10.58 14.65-13.1 12.1-15.5L12.1-15.5Q9.7-17.65 7.75-19.75L7.75-19.75Q6.65-20.95 6.03-22.53 5.4-24.1 5.4-25.8L5.4-25.8Q5.4-28.1 6.58-30.15 7.75-32.2 10.1-33.5L10.1-33.5Q14.6-36.05 19.3-36.05L19.3-36.05Q19.95-36.05 21.15-35.95L21.15-35.95Q22.25-35.85 22.75-35.6L22.75-35.6ZM34.7-11.4Q33.6-10.4 33.6-9.4L33.6-9.4Q33.6-8.6 34.45-7.15L34.45-7.15Q34.95-7.05 35.2-7.05L35.2-7.05Q36.4-7.05 37.3-7.8 38.2-8.55 39.35-9.95L39.35-9.95Q39.3-9.9 40.15-10.9L40.15-10.9Q40.55-11.3 41.2-12.55L41.2-12.55Q41.85-13.85 42.52-14.48 43.2-15.1 44.65-15.1L44.65-15.1Q45.9-15.1 46.7-14.3 47.5-13.5 47.5-12.1L47.5-12.1Q47.5-8.9 47.1-2.3L47.1-2.3Q47.05-1.35 47.32-0.88 47.6-0.4 48.45-0.4L48.45-0.4Q50.95-0.4 52.55-0.7L52.55-0.7Q53.25-0.85 53.65-0.85L53.65-0.85Q54.55-0.85 54.87-0.23 55.2 0.4 55.2 1.95L55.2 1.95 53.9 2.1Q53.3 2.15 51.8 2.35 50.3 2.55 49.05 2.65L49.05 2.65Q47.8 2.75 47.2 3.28 46.6 3.8 46.6 5.05L46.6 5.05Q46.6 6.7 46.35 8.8L46.35 8.8 46.15 11.5Q46.1 12.6 45.67 13.13 45.25 13.65 44.15 13.7L44.15 13.7Q41.7 13.7 41.55 11.55L41.55 11.55Q41.45 10.15 41.45 9.35L41.45 9.35Q41.45 9 41.47 8.45 41.5 7.9 41.45 7.15L41.45 7.15Q41.35 5.45 40.5 5.45L40.5 5.45Q40.1 5.45 39.35 5.9L39.35 5.9Q39 6.15 38.3 6.55L38.3 6.55Q37.35 7.05 36.8 7.45L36.8 7.45Q36.15 7.95 35.15 7.95L35.15 7.95Q34 7.95 32.8 7.3 31.6 6.65 30.8 5.55L30.8 5.55Q33.6 2.5 38.95 1.15L38.95 1.15Q40.55 0.8 41.12-0.05 41.7-0.9 41.6-2.45L41.6-2.45Q41.4-4.6 41.15-4.45L41.15-4.45Q39.75-3.5 37.65-3.5L37.65-3.5Q35.6-3.5 33.05-4.35L33.05-4.35Q31.5-4.8 30.32-6.75 29.15-8.7 29.15-10.55L29.15-10.55Q29.15-10.9 29.25-11.4L29.25-11.4Q29.7-13.4 31.3-15.23 32.9-17.05 34.97-18.23 37.05-19.4 38.85-19.65L38.85-19.65Q40.5-19.95 42.1-19.95L42.1-19.95Q44.1-19.95 45.7-19.4L45.7-19.4Q46.55-19.15 47.35-18.63 48.15-18.1 48.87-17.53 49.6-16.95 49.9-16.7L49.9-16.7Q50.05-16.65 50.05-16.1L50.05-16.1Q50.05-15.55 49.85-15.35L49.85-15.35Q49.55-15.1 49.12-14.93 48.7-14.75 48.3-14.75L48.3-14.75Q47.1-14.75 45.7-15.55L45.7-15.55Q44.55-16.35 43.1-16.35L43.1-16.35Q41.55-16.35 39.25-15.1L39.25-15.1Q38.45-14.7 37.45-13.85 36.45-13 35.6-12.2L35.6-12.2 34.7-11.4ZM59.09-21Q60.34-20.65 60.87-20.15 61.4-19.65 61.4-18.8L61.4-18.8Q61.4-18.4 61.25-17.75L61.25-17.75Q60.7-15.5 60.65-13.25L60.65-13.25Q60.59-10.7 61.45-8.55L61.45-8.55Q61.75-7.8 62.02-7.48 62.3-7.15 62.7-7.15L62.7-7.15Q63.2-7.15 64-8.05L64-8.05Q65.84-10.25 66.75-12.45 67.65-14.65 67.84-17L67.84-17Q68-18.55 68.34-18.95L68.34-18.95Q68.55-19.15 69-19.2 69.45-19.25 70.3-19.25L70.3-19.25Q71.65-19.15 72.17-19 72.7-18.85 72.9-18.5 73.09-18.15 73.09-17.35L73.09-17.35 73.05-15Q73.05-14.25 73-12.8L73-12.8Q72.84-8.3 72.75-6.1L72.75-6.1Q72.7-4.35 71.7-1.7L71.7-1.7Q71.59-1.55 71.15-1.28 70.7-1 70.34-0.95L70.34-0.95Q70.25-0.95 69.92-1.28 69.59-1.6 69.45-1.85L69.45-1.85Q69.09-2.65 68.65-4L68.65-4 68.25-4.95 68.15-5.25 68-5.1 67.2-4.6Q66.59-4.1 65.9-3.8L65.9-3.8Q64.75-3.1 63.15-3.1L63.15-3.1Q61.15-3.1 59.34-4.23 57.55-5.35 56.5-7.3L56.5-7.3Q54.8-10.3 54.8-14.25L54.8-14.25Q54.8-16.25 55.34-19.3L55.34-19.3Q55.45-20.05 56.3-20.6L56.3-20.6Q57.05-21.15 58.05-21.15L58.05-21.15Q58.55-21.15 59.09-21L59.09-21ZM87.64-7.8Q87.14-7.5 86.19-7.5L86.19-7.5Q85.84-7.5 85.34-7.55 84.84-7.6 84.49-7.55L84.49-7.55Q84.89-5.9 86.39-4.88 87.89-3.85 89.74-3.85L89.74-3.85Q91.34-3.85 92.59-4.55L92.59-4.55Q94.44-5.5 95.79-6.8L95.79-6.8Q96.74-7.75 97.59-7.75L97.59-7.75Q98.14-7.75 98.54-7.2L98.54-7.2Q98.94-6.55 98.94-5.6L98.94-5.6Q98.94-4.6 98.54-4.05L98.54-4.05Q97.24-2.05 95.17-1.3 93.09-0.55 90.34-0.55L90.34-0.55Q87.49-0.55 84.84-1.8 82.19-3.05 80.32-5.23 78.44-7.4 77.84-10.05L77.84-10.05Q77.44-11.6 77.44-13.1L77.44-13.1Q77.44-15.45 78.77-16.9 80.09-18.35 83.04-19.65L83.04-19.65Q85.74-20.8 88.04-20.8L88.04-20.8Q89.69-20.8 91.24-20.3L91.24-20.3Q96.04-18.8 96.04-16.2L96.04-16.2Q96.04-14.55 94.09-12.2L94.09-12.2Q93.14-11.1 91.84-10.25 90.54-9.4 89.32-8.72 88.09-8.05 87.64-7.8L87.64-7.8ZM89.74-17.05Q89.69-17.3 89.37-17.48 89.04-17.65 88.99-17.7L88.99-17.7Q87.64-17.8 86.24-16.93 84.84-16.05 83.92-14.7 82.99-13.35 82.99-12.1L82.99-12.1 83.04-11.7Q83.09-11.5 83.57-11.2 84.04-10.9 84.14-11L84.14-11Q87.69-13.65 89.49-15.25L89.49-15.25Q89.79-15.55 89.79-16.35L89.79-16.35Q89.79-16.85 89.74-17.05L89.74-17.05ZM109.54-7.8Q109.04-7.5 108.09-7.5L108.09-7.5Q107.74-7.5 107.24-7.55 106.74-7.6 106.39-7.55L106.39-7.55Q106.79-5.9 108.29-4.88 109.79-3.85 111.64-3.85L111.64-3.85Q113.24-3.85 114.49-4.55L114.49-4.55Q116.34-5.5 117.69-6.8L117.69-6.8Q118.64-7.75 119.49-7.75L119.49-7.75Q120.04-7.75 120.44-7.2L120.44-7.2Q120.84-6.55 120.84-5.6L120.84-5.6Q120.84-4.6 120.44-4.05L120.44-4.05Q119.14-2.05 117.07-1.3 114.99-0.55 112.24-0.55L112.24-0.55Q109.39-0.55 106.74-1.8 104.09-3.05 102.22-5.23 100.34-7.4 99.74-10.05L99.74-10.05Q99.34-11.6 99.34-13.1L99.34-13.1Q99.34-15.45 100.67-16.9 101.99-18.35 104.94-19.65L104.94-19.65Q107.64-20.8 109.94-20.8L109.94-20.8Q111.59-20.8 113.14-20.3L113.14-20.3Q117.94-18.8 117.94-16.2L117.94-16.2Q117.94-14.55 115.99-12.2L115.99-12.2Q115.04-11.1 113.74-10.25 112.44-9.4 111.22-8.72 109.99-8.05 109.54-7.8L109.54-7.8ZM111.64-17.05Q111.59-17.3 111.27-17.48 110.94-17.65 110.89-17.7L110.89-17.7Q109.54-17.8 108.14-16.93 106.74-16.05 105.82-14.7 104.89-13.35 104.89-12.1L104.89-12.1 104.94-11.7Q104.99-11.5 105.47-11.2 105.94-10.9 106.04-11L106.04-11Q109.59-13.65 111.39-15.25L111.39-15.25Q111.69-15.55 111.69-16.35L111.69-16.35Q111.69-16.85 111.64-17.05L111.64-17.05ZM130.09-5.45Q130.14-5.3 130.94-5.2 131.74-5.1 132.74-5.1L132.74-5.1Q134.99-5.1 136.19-5.45L136.19-5.45Q137.34-5.75 138.84-6.3L138.84-6.3Q141.19-7.05 142.09-7.25L142.09-7.25Q142.49-7.3 143.04-6.93 143.59-6.55 143.94-6.1L143.94-6.1Q143.99-6.05 143.99-5.85L143.99-5.85Q143.99-5.5 143.81-5.08 143.64-4.65 143.44-4.5L143.44-4.5Q137.84-0.9 131.34-0.9L131.34-0.9Q129.49-0.9 127.64-1.2L127.64-1.2Q126.29-1.45 124.84-3L124.84-3Q123.84-4.1 123.84-4.9L123.84-4.9Q123.84-5.95 125.34-7.35L125.34-7.35 127.49-9.3Q131.14-12.55 131.79-13.2L131.79-13.2Q132.04-13.45 132.26-13.95 132.49-14.45 132.64-14.75L132.64-14.75Q132.39-14.85 131.86-15.05 131.34-15.25 130.94-15.35L130.94-15.35 129.64-15.6Q127.74-15.9 126.49-16.43 125.24-16.95 124.39-18.35L124.39-18.35Q125.09-19 125.69-19.3 126.29-19.6 127.09-19.6L127.09-19.6Q127.64-19.6 128.24-19.45L128.24-19.45Q132.29-18.35 136.04-18.05L136.04-18.05Q137.04-18 137.66-17.5 138.29-17 138.94-16.1L138.94-16.1 139.64-15.3Q139.84-15.1 139.44-14.18 139.04-13.25 138.54-12.7L138.54-12.7Q136.44-10.6 131.84-6.5L131.84-6.5Q131.49-6.2 130.94-5.9 130.39-5.6 130.09-5.45L130.09-5.45ZM156.29-7.8Q155.79-7.5 154.84-7.5L154.84-7.5Q154.49-7.5 153.99-7.55 153.49-7.6 153.14-7.55L153.14-7.55Q153.54-5.9 155.04-4.88 156.54-3.85 158.39-3.85L158.39-3.85Q159.99-3.85 161.24-4.55L161.24-4.55Q163.09-5.5 164.44-6.8L164.44-6.8Q165.39-7.75 166.24-7.75L166.24-7.75Q166.79-7.75 167.19-7.2L167.19-7.2Q167.59-6.55 167.59-5.6L167.59-5.6Q167.59-4.6 167.19-4.05L167.19-4.05Q165.89-2.05 163.81-1.3 161.74-0.55 158.99-0.55L158.99-0.55Q156.14-0.55 153.49-1.8 150.84-3.05 148.96-5.23 147.09-7.4 146.49-10.05L146.49-10.05Q146.09-11.6 146.09-13.1L146.09-13.1Q146.09-15.45 147.41-16.9 148.74-18.35 151.69-19.65L151.69-19.65Q154.39-20.8 156.69-20.8L156.69-20.8Q158.34-20.8 159.89-20.3L159.89-20.3Q164.69-18.8 164.69-16.2L164.69-16.2Q164.69-14.55 162.74-12.2L162.74-12.2Q161.79-11.1 160.49-10.25 159.19-9.4 157.96-8.72 156.74-8.05 156.29-7.8L156.29-7.8ZM158.39-17.05Q158.34-17.3 158.01-17.48 157.69-17.65 157.64-17.7L157.64-17.7Q156.29-17.8 154.89-16.93 153.49-16.05 152.56-14.7 151.64-13.35 151.64-12.1L151.64-12.1 151.69-11.7Q151.74-11.5 152.21-11.2 152.69-10.9 152.79-11L152.79-11Q156.34-13.65 158.14-15.25L158.14-15.25Q158.44-15.55 158.44-16.35L158.44-16.35Q158.44-16.85 158.39-17.05L158.39-17.05ZM197.03-18.5Q198.58-17.35 201.73-14.85L201.73-14.85Q202.03-15.65 202.28-16.23 202.53-16.8 202.68-17.2L202.68-17.2Q202.83-17.6 203.38-18.95 203.93-20.3 204.23-21.5L204.23-21.5Q204.78-23.85 206.73-23.85L206.73-23.85Q208.68-23.85 208.68-22L208.68-22Q208.68-21.4 208.53-20.8L208.53-20.8Q207.28-16.45 206.28-13.95L206.28-13.95Q205.93-13 205.93-12.5L205.93-12.5Q205.93-11.65 207.13-10.85L207.13-10.85Q212.63-7.6 212.63-1.3L212.63-1.3Q212.63 0.1 212.01 0.95 211.38 1.8 210.38 1.8L210.38 1.8Q209.98 1.8 209.53 1.65L209.53 1.65Q208.83 1.45 208.46 1.07 208.08 0.7 208.08 0.05L208.08 0.05Q208.08-0.3 208.13-0.45L208.13-0.45Q208.18-0.6 208.18-1L208.18-1Q208.18-2.65 206.86-4.8 205.53-6.95 204.08-7.7L204.08-7.7Q203.48-7.95 203.23-7.95L203.23-7.95Q202.83-7.95 202.53-7.7 202.23-7.45 201.68-6.85L201.68-6.85 200.68-5.8Q199.33-4.35 198.36-3.45 197.38-2.55 196.23-2L196.23-2Q194.38-1.1 192.53-1.1L192.53-1.1Q189.48-1.1 187.11-3.23 184.73-5.35 184.23-8.75L184.23-8.75Q184.08-9.65 184.08-10.45L184.08-10.45Q184.08-14.4 187.13-18.4L187.13-18.4Q187.83-19.35 187.83-19.85L187.83-19.85Q187.83-20.45 186.98-21.3L186.98-21.3Q185.13-23.1 184.11-25 183.08-26.9 183.08-29.25L183.08-29.25Q183.08-31.95 184.81-34.25 186.53-36.55 189.16-37.9 191.78-39.25 194.33-39.25L194.33-39.25Q196.63-39.25 198.08-38.2L198.08-38.2Q199.38-37.3 200.23-35.2 201.08-33.1 201.08-31.2L201.08-31.2Q201.08-30.85 200.98-30.25L200.98-30.25Q200.18-25.4 197.03-22.45L197.03-22.45Q195.88-21.4 195.88-20.4L195.88-20.4Q195.88-19.45 197.03-18.5L197.03-18.5ZM192.93-25Q193.53-26.3 193.96-27.33 194.38-28.35 194.73-29.1L194.73-29.1 195.63-31.35 195.28-31.6Q195.08-33.05 194.93-33.6L194.93-33.6Q194.63-34.7 194.23-35.25 193.83-35.8 193.23-35.8L193.23-35.8Q192.43-35.8 191.18-34.65L191.18-34.65Q190.13-33.65 189.56-32.35 188.98-31.05 188.98-29.7L188.98-29.7Q188.98-27.25 190.63-25L190.63-25Q191.33-24.1 191.88-24.1L191.88-24.1Q192.48-24.1 192.93-25L192.93-25ZM197.88-12.1Q196.78-12.95 195.88-13.6 194.98-14.25 194.33-14.75L194.33-14.75 192.28-16.25Q190.28-13.4 190.28-10L190.28-10Q190.28-9.25 190.48-7.75L190.48-7.75Q190.68-6.6 191.46-5.88 192.23-5.15 193.13-5.15L193.13-5.15Q193.98-5.15 194.53-5.75L194.53-5.75Q196.23-7.6 198.18-10.5L198.18-10.5Q198.28-10.6 198.28-10.95L198.28-10.95Q198.28-11.3 198.18-11.65 198.08-12 197.88-12.1L197.88-12.1ZM250.38-35.6Q251.63-35.1 251.63-34.2L251.63-34.2Q251.63-33.3 250.38-31.9L250.38-31.9Q249.83-31.95 248.78-31.95L248.78-31.95Q246.48-31.95 244.38-31.33 242.28-30.7 240.03-29.4L240.03-29.4Q238.98-28.75 238.23-27.75L238.23-27.75Q237.68-27.15 237.68-26.35L237.68-26.35Q237.68-25 239.18-23.75L239.18-23.75Q240.63-22.25 243.93-18.3L243.93-18.3 245.08-17.1Q247.53-14.45 248.95-12.6 250.38-10.75 251.38-8.35L251.38-8.35Q251.78-7.3 251.78-6.45L251.78-6.45Q251.78-4.3 250.13-2.5L250.13-2.5Q248.23-0.4 245.73 0.58 243.23 1.55 240.08 1.8L240.08 1.8Q239.68 1.85 239.13 1.9 238.58 1.95 237.88 1.95L237.88 1.95Q237.43 1.95 236.53 1.85L236.53 1.85Q235.43 1.9 234.23 1.48 233.03 1.05 232.03 0.25L232.03 0.25Q230.13-1.35 230.13-3.3L230.13-3.3Q230.13-4.95 231.53-6.65L231.53-6.65Q232.23-6.55 232.35-6.23 232.48-5.9 232.4-5.5 232.33-5.1 232.33-4.85L232.33-4.85Q232.33-4.7 232.43-4.4L232.43-4.4Q234.38-3.5 237.08-3.5L237.08-3.5Q240.08-3.5 242.75-4.53 245.43-5.55 246.03-7.05L246.03-7.05Q246.38-8.05 244.33-10.58 242.28-13.1 239.73-15.5L239.73-15.5Q237.33-17.65 235.38-19.75L235.38-19.75Q234.28-20.95 233.65-22.53 233.03-24.1 233.03-25.8L233.03-25.8Q233.03-28.1 234.2-30.15 235.38-32.2 237.73-33.5L237.73-33.5Q242.23-36.05 246.93-36.05L246.93-36.05Q247.58-36.05 248.78-35.95L248.78-35.95Q249.88-35.85 250.38-35.6L250.38-35.6ZM262.42-26.7Q262.47-21.85 262.7-18.73 262.92-15.6 263.77-12.1L263.77-12.1Q265.87-12.85 267.62-12.85L267.62-12.85Q270.57-12.85 272.72-11.1 274.87-9.35 275.62-6.75L275.62-6.75Q276.22-4.85 276.22-1.65L276.22-1.65 276.17 2.25Q276.17 2.6 275.77 3.05 275.37 3.5 274.97 3.6L274.97 3.6Q274.82 3.65 274.52 3.65L274.52 3.65Q273.37 3.65 272.12 2.53 270.87 1.4 270.82 0.3L270.82 0.3 270.72-2.3Q270.72-3.2 270.62-4.9L270.62-4.9Q270.52-6.65 270.22-7.4L270.22-7.4Q269.92-8.25 269.47-8.7 269.02-9.15 268.47-9.15L268.47-9.15Q268.07-9.15 267.6-8.8 267.12-8.45 266.77-7.85L266.77-7.85Q265.72-6.2 264.02-1.35L264.02-1.35Q263.47 0.4 262.07 0.4L262.07 0.4Q261.92 0.4 261.42 0.3L261.42 0.3Q261.12 0.2 260.27-0.03 259.42-0.25 258.95-0.75 258.47-1.25 258.47-2.2L258.47-2.2Q258.47-11.65 257.32-17.85L257.32-17.85Q256.77-20.95 256.77-25L256.77-25 256.77-28.35 256.77-30.1Q256.77-30.8 257.52-31.3 258.27-31.8 259.22-31.8L259.22-31.8Q260.02-31.8 260.57-31.45L260.57-31.45Q261.57-30.85 262-29.95 262.42-29.05 262.42-27.7L262.42-27.7 262.42-26.7ZM296.42-2.55Q295.97-2.75 295.52-2.75L295.52-2.75Q295.07-2.75 294.75-2.53 294.42-2.3 294.02-1.85L294.02-1.85Q293.42-1.25 292.77-0.85L292.77-0.85Q292.17-0.5 290.57-0.2L290.57-0.2Q289.87-0.1 289.42-0.1L289.42-0.1Q287.32-0.1 285.05-1.03 282.77-1.95 281.82-3.25L281.82-3.25Q280.82-4.65 280.87-6.25L280.87-6.25Q280.92-8.65 282.87-11.05L282.87-11.05Q284.77-13.35 286.35-14.3 287.92-15.25 290.67-15.5L290.67-15.5Q291.27-15.5 292.4-15.7 293.52-15.9 293.52-16.25L293.52-16.25Q293.52-16.95 292.9-17.53 292.27-18.1 290.37-18.1L290.37-18.1Q289.67-18.1 288.27-18L288.27-18Q286.87-17.9 286.32-17.9L286.32-17.9Q284.62-17.9 283.87-18.45L283.87-18.45Q283.67-18.55 283.67-19.4L283.67-19.4Q283.67-20.9 284.72-21.3L284.72-21.3Q286.87-22.1 289.17-22.15L289.17-22.15Q292.07-22.15 294.55-20.88 297.02-19.6 298.17-17.7L298.17-17.7Q299.32-15.8 299.67-12.45L299.67-12.45Q300.07-8.7 300.07-2.9L300.07-2.9Q300.07-1.3 299.62-1.05L299.62-1.05Q299.22-0.8 298.87-0.8L298.87-0.8Q298.42-0.8 298.05-1.07 297.67-1.35 297.22-1.85L297.22-1.85Q296.77-2.4 296.42-2.55L296.42-2.55ZM288.52-3.15Q290.87-3.85 293.12-5.4L293.12-5.4Q293.62-5.75 294.02-6.3 294.42-6.85 294.52-7L294.52-7Q294.62-7.15 294.7-7.88 294.77-8.6 294.72-9.05L294.72-9.05Q294.67-9.2 294.55-9.85 294.42-10.5 294.17-11L294.17-11Q293.92-11.4 293.37-11.75 292.82-12.1 292.37-12.05L292.37-12.05Q291.42-12 290.32-11.35 289.22-10.7 288.27-9.6L288.27-9.6Q287.32-8.45 286.8-7.28 286.27-6.1 286.27-5.1L286.27-5.1Q286.37-3.75 287.02-3.3L287.02-3.3Q287.37-3.05 287.87-3.05L287.87-3.05Q288.27-3.05 288.52-3.15L288.52-3.15ZM312.42-21.2Q312.57-20.7 312.47-19.65L312.47-19.65 311.87-13.75Q312.12-13.95 312.62-15.18 313.12-16.4 313.57-17.18 314.02-17.95 314.27-18.2L314.27-18.2Q316.62-20.45 319.57-20.9 322.52-21.35 326.07-21.3L326.07-21.3Q326.42-21.3 326.84-21.03 327.27-20.75 327.27-20.58 327.27-20.4 326.97-20.03 326.67-19.65 326.42-19.55L326.42-19.55Q323.42-18.55 321.14-17.25 318.87-15.95 317.22-13.85L317.22-13.85Q313.32-8.9 312.72-3.65L312.72-3.65Q312.57-2.25 311.87-1.78 311.17-1.3 309.92-1.3L309.92-1.3Q308.52-1.3 307.42-2.5 306.32-3.7 306.32-5.15L306.32-5.15Q306.37-10.45 306.37-21.05L306.37-21.05Q306.37-22.5 307.02-23.08 307.67-23.65 309.37-23.65L309.37-23.65Q310.62-23.65 311.49-22.95 312.37-22.25 312.42-21.2L312.42-21.2ZM336.92-7.8Q336.42-7.5 335.47-7.5L335.47-7.5Q335.12-7.5 334.62-7.55 334.12-7.6 333.77-7.55L333.77-7.55Q334.17-5.9 335.67-4.88 337.17-3.85 339.02-3.85L339.02-3.85Q340.62-3.85 341.87-4.55L341.87-4.55Q343.72-5.5 345.07-6.8L345.07-6.8Q346.02-7.75 346.87-7.75L346.87-7.75Q347.42-7.75 347.82-7.2L347.82-7.2Q348.22-6.55 348.22-5.6L348.22-5.6Q348.22-4.6 347.82-4.05L347.82-4.05Q346.52-2.05 344.44-1.3 342.37-0.55 339.62-0.55L339.62-0.55Q336.77-0.55 334.12-1.8 331.47-3.05 329.59-5.23 327.72-7.4 327.12-10.05L327.12-10.05Q326.72-11.6 326.72-13.1L326.72-13.1Q326.72-15.45 328.04-16.9 329.37-18.35 332.32-19.65L332.32-19.65Q335.02-20.8 337.32-20.8L337.32-20.8Q338.97-20.8 340.52-20.3L340.52-20.3Q345.32-18.8 345.32-16.2L345.32-16.2Q345.32-14.55 343.37-12.2L343.37-12.2Q342.42-11.1 341.12-10.25 339.82-9.4 338.59-8.72 337.37-8.05 336.92-7.8L336.92-7.8ZM339.02-17.05Q338.97-17.3 338.64-17.48 338.32-17.65 338.27-17.7L338.27-17.7Q336.92-17.8 335.52-16.93 334.12-16.05 333.19-14.7 332.27-13.35 332.27-12.1L332.27-12.1 332.32-11.7Q332.37-11.5 332.84-11.2 333.32-10.9 333.42-11L333.42-11Q336.97-13.65 338.77-15.25L338.77-15.25Q339.07-15.55 339.07-16.35L339.07-16.35Q339.07-16.85 339.02-17.05L339.02-17.05Z" opacity="1" transform="matrix(1,0,0,1,0,0)" fill="#000000" class="slogan-text-1" data-fill-palette-color="secondary" id="text-1"></path></svg></g></svg></g></svg></g></svg></g><g transform="matrix(1,0,0,1,468.1140641031484,4.35113105701727)"><svg viewBox="0 0 244.43135999999998 186.36481635269467" height="186.36481635269467" width="244.43135999999998"><g><svg xmlns="http://www.w3.org/2000/svg" xmlns:xlink="http://www.w3.org/1999/xlink" version="1.1" x="0" y="0" viewBox="4 17.44450081473247 92.788 70.74549918526753" enable-background="new 0 0 100 100" xml:space="preserve" height="186.36481635269467" width="244.43135999999998" class="icon-icon-0" data-fill-palette-color="accent" id="icon-0"><path d="M95.191 61c-1.609 14-12.603 24.401-25.934 24.401C55.926 85.401 44.932 75 43.323 61h-1.596c0.188 15 12.438 27.19 27.531 27.19C84.35 88.19 96.601 76 96.788 61H95.191z" fill="#000000" data-fill-palette-color="accent"></path><path d="M45.215 61c0.109 5 2.557 11.096 6.494 15.254L67.506 61H45.215zM55.938 63.258c1.13-0.242 2.077-0.283 2.117-0.095 0.041 0.188-0.843 0.536-1.972 0.776-1.131 0.24-2.078 0.283-2.119 0.094C53.926 63.845 54.808 63.498 55.938 63.258zM48.387 64.73c-0.04-0.188 0.843-0.535 1.974-0.775 1.13-0.242 2.077-0.283 2.119-0.095 0.039 0.188-0.843 0.536-1.974 0.776C49.376 64.877 48.428 64.92 48.387 64.73zM49.781 67.52c-0.04-0.188 0.843-0.535 1.974-0.776 1.13-0.241 2.077-0.282 2.119-0.096 0.039 0.189-0.843 0.538-1.974 0.777C50.77 67.666 49.822 67.709 49.781 67.52zM54.727 69.507c-1.096 0.367-2.031 0.518-2.094 0.334-0.061-0.183 0.777-0.628 1.872-0.996 1.096-0.367 2.033-0.518 2.095-0.334C56.661 68.692 55.822 69.139 54.727 69.507zM58.267 66.694c-1.021 0.544-1.921 0.844-2.012 0.674s0.663-0.747 1.685-1.289c1.019-0.542 1.92-0.843 2.01-0.673C60.04 65.576 59.286 66.153 58.267 66.694zM61.661 63.939c-1.13 0.24-2.079 0.283-2.118 0.094-0.04-0.188 0.843-0.535 1.972-0.775 1.131-0.242 2.079-0.283 2.119-0.095C63.675 63.351 62.791 63.699 61.661 63.939z" fill="#000000" data-fill-palette-color="accent"></path><path d="M52.697 77.047c3.966 3.747 9.212 6.259 15.021 6.629l0.201-21.328L52.697 77.047zM58.526 76.824c-0.612 0.981-1.241 1.692-1.404 1.59-0.164-0.103 0.2-0.979 0.813-1.958s1.242-1.689 1.405-1.59C59.503 74.969 59.139 75.847 58.526 76.824zM61.501 77.761c-0.613 0.981-1.241 1.692-1.405 1.59-0.163-0.103 0.2-0.979 0.813-1.958 0.612-0.98 1.241-1.69 1.405-1.59C62.477 75.906 62.113 76.782 61.501 77.761zM61.902 72.331c-0.612 0.98-1.241 1.691-1.404 1.589-0.164-0.103 0.201-0.979 0.813-1.958 0.612-0.979 1.242-1.69 1.404-1.59C62.879 70.476 62.515 71.352 61.902 72.331zM64.962 77.177c-0.498 1.042-1.042 1.82-1.216 1.737s0.09-0.994 0.586-2.038c0.497-1.043 1.042-1.82 1.215-1.738C65.722 75.221 65.459 76.134 64.962 77.177zM65.401 72.677c-0.32 1.112-0.729 1.968-0.915 1.915-0.185-0.054-0.076-0.996 0.243-2.106 0.319-1.111 0.73-1.968 0.914-1.914C65.83 70.624 65.72 71.567 65.401 72.677zM65.78 68.321c-0.612 0.981-1.242 1.692-1.405 1.589-0.163-0.103 0.2-0.979 0.813-1.958 0.612-0.979 1.241-1.689 1.403-1.589C66.757 66.466 66.392 67.343 65.78 68.321z" fill="#000000" data-fill-palette-color="accent"></path><path d="M69.312 62.595l-0.198 21.133c0.034 0 0.067 0.002 0.101 0.002 5.892 0 11.281-2.217 15.458-5.737L69.312 62.595zM70.304 65.291c0.177-0.078 0.696 0.715 1.163 1.773 0.467 1.058 0.7 1.976 0.524 2.053-0.177 0.08-0.697-0.715-1.163-1.772C70.361 66.288 70.128 65.367 70.304 65.291zM73.128 74.579c-0.177 0.077-0.697-0.716-1.163-1.772-0.468-1.059-0.7-1.978-0.524-2.056 0.177-0.078 0.697 0.717 1.163 1.772C73.07 73.582 73.303 74.501 73.128 74.579zM74.947 79.897c-0.178 0.078-0.697-0.717-1.163-1.772-0.468-1.058-0.701-1.978-0.524-2.056 0.175-0.078 0.696 0.716 1.162 1.772C74.889 78.9 75.122 79.819 74.947 79.897zM74.319 70.272c-0.738-0.89-1.217-1.709-1.069-1.832 0.149-0.123 0.868 0.498 1.605 1.385 0.739 0.89 1.217 1.708 1.068 1.833C75.776 71.78 75.059 71.161 74.319 70.272zM77.393 77.965c-0.176 0.077-0.696-0.717-1.163-1.774s-0.699-1.977-0.524-2.055c0.178-0.077 0.697 0.717 1.162 1.772C77.335 76.967 77.568 77.887 77.393 77.965zM77.727 73.069c-0.583-0.998-0.919-1.885-0.753-1.981 0.165-0.098 0.773 0.632 1.355 1.63 0.584 0.997 0.921 1.884 0.755 1.982C78.918 74.796 78.311 74.067 77.727 73.069z" fill="#000000" data-fill-palette-color="accent"></path><path d="M69.513 61l-0.006-0.09 16.208 16.295C90.236 72.939 93.095 67 93.212 61H69.513zM84.654 62.848c1.063 0.453 1.864 0.962 1.787 1.14-0.075 0.178-0.997-0.046-2.06-0.497-1.063-0.452-1.864-0.963-1.789-1.139C82.669 62.173 83.591 62.396 84.654 62.848zM75.429 63.018c-1.005-0.569-1.742-1.168-1.647-1.334 0.096-0.168 0.986 0.157 1.992 0.728 1.005 0.569 1.742 1.168 1.646 1.335C77.324 63.914 76.434 63.588 75.429 63.018zM79.603 66.721c-1.008-0.57-1.744-1.169-1.649-1.336 0.096-0.168 0.987 0.158 1.992 0.728s1.742 1.167 1.647 1.336C81.498 67.615 80.606 67.289 79.603 66.721zM79.979 63.281c-1.125-0.272-1.997-0.644-1.951-0.831 0.044-0.188 0.991-0.119 2.112 0.153 1.124 0.271 1.998 0.643 1.952 0.83C82.047 63.621 81.101 63.552 79.979 63.281zM84.235 69.9c-1.005-0.57-1.741-1.168-1.647-1.336 0.096-0.168 0.988 0.159 1.991 0.729 1.005 0.568 1.743 1.166 1.648 1.335S85.242 70.47 84.235 69.9zM85.044 66.888c-1.006-0.569-1.742-1.168-1.648-1.335 0.097-0.167 0.987 0.159 1.992 0.729s1.742 1.167 1.647 1.336C86.94 67.783 86.049 67.458 85.044 66.888z" fill="#000000" data-fill-palette-color="accent"></path><path d="M6.924 18.872c0 0 23.39-7.602 30.406 12.28C37.33 31.151 22.712 18.287 6.924 18.872z" fill="#000000" data-fill-palette-color="accent"></path><path d="M4 20.041c0 0 19.881 0 32.746 12.864C36.746 32.905 15.11 32.905 4 20.041z" fill="#000000" data-fill-palette-color="accent"></path><path d="M39.961 33.441c0 0 0-5.441 2.631-5.441h2.631c0 0-2.631 4.475-0.877 7.105" fill="#000000" data-fill-palette-color="accent"></path><path d="M39.104 58h32.408c0.013 0 0.026-0.494 0.026-0.788 0-13.563-12.763-24.515-28.506-24.515S14.525 43.715 14.525 57.278 27.288 81.85 43.032 81.85c1.569 0 3.107-0.198 4.608-0.408C42.523 75.251 39.327 67 39.104 58z" fill="#000000" data-fill-palette-color="accent"></path></svg></g></svg></g></svg></g><defs></defs></svg><rect width="395.52" height="108.27791220787076" fill="none" stroke="none" visibility="hidden"></rect></g></svg></g></svg>